<svg width="64" height="64" viewBox="0 0 64 64" fill="none" xmlns="http://www.w3.org/2000/svg" role="img" aria-hidden="true">
  <path d="M26 8 C26 17.9 33.6 25 43 26 C33.6 27 26 34.1 26 44 C26 34.1 18.4 27 9 26 C18.4 25 26 17.9 26 8 Z" fill="#8B5CF6"/>
  <path d="M48 34 C48 40.6 52.9 45.1 59 46 C52.9 46.9 48 51.4 48 58 C48 51.4 43.1 46.9 37 46 C43.1 45.1 48 40.6 48 34 Z" fill="#8FD3FF"/>
  <path d="M11 40 C11 43.9 13.7 46.9 17.5 47.5 C13.7 48.1 11 51.1 11 55 C11 51.1 8.3 48.1 4.5 47.5 C8.3 46.9 11 43.9 11 40 Z" fill="#FFB020"/>
</svg>
