<?xml version="1.0" encoding="utf-8"?>
<!-- Generator: Adobe Illustrator 19.2.0, SVG Export Plug-In . SVG Version: 6.00 Build 0)  -->
<svg version="1.1" id="Layer_1" xmlns="http://www.w3.org/2000/svg" xmlns:xlink="http://www.w3.org/1999/xlink" x="0px" y="0px"
	 viewBox="0 0 418.5 128.9" style="enable-background:new 0 0 418.5 128.9;" xml:space="preserve">
<style type="text/css">
	.st0{fill:#00A1DF;}
	.st1{clip-path:url(#SVGID_2_);fill:#00A1DF;}
</style>
<polygon class="st0" points="17.8,122.1 6.1,122.1 6.1,101.4 17.3,101.4 17.3,104.4 9.6,104.4 9.6,110.2 16.7,110.2 16.7,113.1 
	9.6,113.1 9.6,119.2 17.8,119.2 "/>
<g>
	<defs>
		<rect id="SVGID_1_" width="418.5" height="128.9"/>
	</defs>
	<clipPath id="SVGID_2_">
		<use xlink:href="#SVGID_1_"  style="overflow:visible;"/>
	</clipPath>
	<path class="st1" d="M32.7,107.4l-4.9,7.5l4.9,7.3h-3.9l-2.6-4.6c-0.2-0.3-0.4-0.6-0.6-1.1h-0.1c0,0.1-0.2,0.4-0.6,1.1l-2.6,4.6
		h-3.9l5-7.2l-4.8-7.5h3.9l2.6,4.8c0.2,0.4,0.4,0.7,0.6,1.1h0l3.3-5.9H32.7z"/>
	<path class="st1" d="M37.8,120L37.8,120l0,9h-3.4v-21.6h3.4v2.6h0c1.1-2,2.8-2.9,5-2.9c1.9,0,3.3,0.7,4.4,2
		c1.1,1.3,1.6,3.1,1.6,5.3c0,2.5-0.6,4.4-1.8,5.9c-1.2,1.5-2.8,2.2-4.8,2.2C40.3,122.4,38.8,121.6,37.8,120 M37.7,114.1v1.8
		c0,1.1,0.3,2,1,2.7c0.7,0.8,1.6,1.1,2.6,1.1c1.2,0,2.2-0.5,2.9-1.4c0.7-1,1.1-2.3,1.1-4c0-1.5-0.3-2.6-1-3.4
		c-0.7-0.8-1.5-1.2-2.7-1.2c-1.2,0-2.1,0.4-2.9,1.3C38.1,111.8,37.7,112.9,37.7,114.1"/>
	<path class="st1" d="M64,115.7H53.9c0,1.4,0.5,2.4,1.3,3.2c0.8,0.7,1.9,1.1,3.3,1.1c1.6,0,3-0.5,4.3-1.4v2.7
		c-1.4,0.8-3.1,1.3-5.3,1.3c-2.2,0-3.9-0.7-5.1-2c-1.2-1.3-1.9-3.2-1.9-5.7c0-2.3,0.7-4.2,2-5.6c1.4-1.4,3.1-2.2,5.1-2.2
		c2,0,3.6,0.6,4.7,1.9c1.1,1.3,1.7,3.1,1.7,5.4V115.7z M60.7,113.3c0-1.2-0.3-2.1-0.8-2.8c-0.6-0.7-1.3-1-2.3-1c-1,0-1.8,0.3-2.4,1
		c-0.7,0.7-1.1,1.6-1.2,2.8H60.7z"/>
	<path class="st1" d="M75,110.5c-0.4-0.3-1-0.5-1.7-0.5c-1,0-1.8,0.5-2.5,1.3c-0.7,0.9-1,2.1-1,3.6v7.1h-3.3v-14.8h3.3v3h0.1
		c0.3-1,0.8-1.9,1.5-2.4c0.7-0.6,1.4-0.9,2.3-0.9c0.6,0,1.1,0.1,1.4,0.3V110.5z"/>
	<path class="st1" d="M85.3,122c-0.7,0.3-1.5,0.5-2.6,0.5c-2.9,0-4.3-1.4-4.3-4.1V110h-2.5v-2.6h2.5v-3.4l3.3-1v4.4h3.5v2.6h-3.5
		v7.4c0,0.9,0.2,1.5,0.5,1.9c0.3,0.4,0.9,0.6,1.6,0.6c0.6,0,1.1-0.2,1.5-0.5V122z"/>
	<path class="st1" d="M93.8,122.5c-2.3,0-4.1-0.7-5.5-2.1c-1.4-1.4-2-3.2-2-5.5c0-2.5,0.7-4.4,2.1-5.8c1.4-1.4,3.3-2.1,5.7-2.1
		c2.3,0,4.1,0.7,5.4,2c1.3,1.4,1.9,3.2,1.9,5.6c0,2.3-0.7,4.2-2.1,5.7C98,121.8,96.1,122.5,93.8,122.5 M94,109.7
		c-1.3,0-2.3,0.5-3.1,1.4c-0.8,0.9-1.1,2.2-1.1,3.8c0,1.5,0.4,2.8,1.1,3.7c0.8,0.9,1.8,1.3,3.1,1.3c1.3,0,2.3-0.4,3-1.3
		c0.7-0.9,1.1-2.1,1.1-3.7c0-1.6-0.4-2.9-1.1-3.8C96.3,110.1,95.3,109.7,94,109.7"/>
	<path class="st1" d="M103.2,121.7v-3.1c1.3,1,2.6,1.4,4.1,1.4c2,0,3-0.6,3-1.8c0-0.3-0.1-0.6-0.3-0.9c-0.2-0.2-0.4-0.5-0.7-0.6
		c-0.3-0.2-0.6-0.3-1-0.5c-0.4-0.1-0.8-0.3-1.3-0.5c-0.6-0.2-1.2-0.5-1.6-0.8c-0.5-0.3-0.9-0.6-1.2-0.9c-0.3-0.3-0.6-0.7-0.7-1.2
		c-0.2-0.4-0.2-0.9-0.2-1.5c0-0.7,0.2-1.3,0.5-1.9c0.3-0.5,0.8-1,1.4-1.4c0.6-0.4,1.2-0.7,1.9-0.8c0.7-0.2,1.5-0.3,2.2-0.3
		c1.4,0,2.6,0.2,3.7,0.6v2.9c-1-0.7-2.2-1.1-3.6-1.1c-0.4,0-0.8,0-1.1,0.1c-0.3,0.1-0.6,0.2-0.9,0.4c-0.2,0.1-0.4,0.3-0.6,0.6
		c-0.1,0.2-0.2,0.5-0.2,0.7c0,0.3,0.1,0.6,0.2,0.8c0.1,0.2,0.3,0.4,0.6,0.6c0.3,0.2,0.6,0.3,0.9,0.5c0.4,0.1,0.8,0.3,1.3,0.5
		c0.6,0.3,1.2,0.5,1.7,0.8c0.5,0.3,0.9,0.6,1.3,0.9c0.4,0.3,0.6,0.7,0.8,1.2c0.2,0.4,0.3,1,0.3,1.6c0,0.7-0.2,1.4-0.5,2
		c-0.3,0.6-0.8,1-1.4,1.4c-0.6,0.4-1.2,0.6-2,0.8c-0.8,0.2-1.6,0.3-2.4,0.3C105.8,122.5,104.4,122.2,103.2,121.7"/>
	<path class="st1" d="M136.1,115.7H126c0,1.4,0.5,2.4,1.3,3.2c0.8,0.7,1.9,1.1,3.3,1.1c1.6,0,3-0.5,4.3-1.4v2.7
		c-1.3,0.8-3.1,1.3-5.3,1.3c-2.2,0-3.9-0.7-5.1-2c-1.2-1.3-1.9-3.2-1.9-5.7c0-2.3,0.7-4.2,2-5.6c1.4-1.4,3.1-2.2,5.1-2.2
		c2,0,3.6,0.6,4.7,1.9c1.1,1.3,1.7,3.1,1.7,5.4V115.7z M132.8,113.3c0-1.2-0.3-2.1-0.9-2.8c-0.6-0.7-1.3-1-2.3-1c-1,0-1.8,0.3-2.4,1
		c-0.7,0.7-1.1,1.6-1.2,2.8H132.8z"/>
	<path class="st1" d="M151.7,122.1h-3.3v-8.3c0-2.8-1-4.1-2.9-4.1c-1,0-1.9,0.4-2.5,1.1c-0.7,0.8-1,1.7-1,2.9v8.4h-3.4v-14.8h3.4
		v2.5h0.1c1.1-1.9,2.7-2.8,4.8-2.8c1.6,0,2.8,0.5,3.7,1.6c0.8,1,1.3,2.6,1.3,4.5V122.1z"/>
	<path class="st1" d="M174.9,115.7h-10.1c0,1.4,0.5,2.4,1.3,3.2c0.8,0.7,1.9,1.1,3.3,1.1c1.6,0,3-0.5,4.3-1.4v2.7
		c-1.4,0.8-3.1,1.3-5.3,1.3c-2.2,0-3.9-0.7-5.1-2c-1.2-1.3-1.9-3.2-1.9-5.7c0-2.3,0.7-4.2,2.1-5.6c1.4-1.4,3-2.2,5.1-2.2
		c2,0,3.6,0.6,4.7,1.9c1.1,1.3,1.7,3.1,1.7,5.4V115.7z M171.7,113.3c0-1.2-0.3-2.1-0.9-2.8c-0.6-0.7-1.3-1-2.3-1c-1,0-1.8,0.3-2.4,1
		c-0.7,0.7-1.1,1.6-1.2,2.8H171.7z"/>
	<rect x="177.4" y="100.3" class="st1" width="3.4" height="21.9"/>
	<path class="st1" d="M202.3,121.5c-1.2,0.7-2.6,1-4.2,1c-2.2,0-4-0.7-5.3-2.1c-1.3-1.4-2-3.1-2-5.3c0-2.4,0.7-4.4,2.2-5.9
		c1.4-1.5,3.4-2.2,5.8-2.2c1.3,0,2.5,0.2,3.6,0.7v3.1c-1-0.8-2.1-1.2-3.3-1.2c-1.4,0-2.6,0.5-3.5,1.4c-0.9,1-1.4,2.2-1.4,3.8
		c0,1.5,0.4,2.7,1.3,3.6c0.9,0.9,2,1.3,3.4,1.3c1.2,0,2.3-0.4,3.4-1.3V121.5z"/>
	<path class="st1" d="M217.8,122.1h-3.3v-2.3h-0.1c-1,1.8-2.5,2.7-4.5,2.7c-3.5,0-5.2-2.1-5.2-6.3v-8.8h3.3v8.5c0,2.7,1,4,3.1,4
		c1,0,1.8-0.4,2.4-1.1c0.6-0.7,1-1.7,1-2.9v-8.5h3.3V122.1z"/>
	<path class="st1" d="M223.1,104.3c-0.5,0-1-0.2-1.4-0.5c-0.4-0.4-0.6-0.8-0.6-1.4c0-0.5,0.2-1,0.6-1.4c0.4-0.4,0.9-0.5,1.4-0.5
		c0.6,0,1.1,0.2,1.4,0.5c0.4,0.4,0.6,0.8,0.6,1.4c0,0.5-0.2,1-0.6,1.3C224.1,104.1,223.7,104.3,223.1,104.3 M224.7,122.1h-3.4v-14.8
		h3.4V122.1z"/>
	<path class="st1" d="M241.8,122.1h-3.3v-2.5h-0.1c-1.1,1.9-2.7,2.9-5,2.9c-1.8,0-3.3-0.7-4.4-2c-1.1-1.3-1.6-3.1-1.6-5.4
		c0-2.4,0.6-4.4,1.8-5.9c1.2-1.5,2.8-2.2,4.8-2.2c2,0,3.4,0.8,4.3,2.4h0.1v-9.1h3.3V122.1z M238.5,115.4v-1.9c0-1.1-0.3-1.9-1-2.7
		c-0.7-0.7-1.6-1.1-2.6-1.1c-1.2,0-2.2,0.5-3,1.4c-0.7,0.9-1.1,2.2-1.1,3.9c0,1.5,0.3,2.7,1,3.6c0.7,0.9,1.6,1.3,2.8,1.3
		c1.1,0,2.1-0.4,2.8-1.3C238.2,117.7,238.5,116.7,238.5,115.4"/>
	<path class="st1" d="M256.8,122.1h-3.2v-2.3h-0.1c-1,1.8-2.5,2.7-4.5,2.7c-1.5,0-2.6-0.4-3.4-1.2c-0.8-0.8-1.2-1.8-1.2-3.1
		c0-2.8,1.6-4.4,4.8-4.9l4.4-0.6c0-2.1-1-3.2-3-3.2c-1.8,0-3.4,0.6-4.8,1.8v-2.9c1.6-0.9,3.4-1.4,5.4-1.4c3.7,0,5.6,1.8,5.6,5.5
		V122.1z M253.6,114.9l-3.1,0.4c-1,0.1-1.7,0.4-2.2,0.7c-0.5,0.3-0.7,0.9-0.7,1.8c0,0.6,0.2,1.1,0.7,1.5c0.5,0.4,1,0.6,1.8,0.6
		c1,0,1.9-0.4,2.5-1.1c0.7-0.7,1-1.6,1-2.7V114.9z"/>
	<path class="st1" d="M273.6,122.1h-3.4v-2.5h-0.1c-1.1,1.9-2.7,2.9-5,2.9c-1.8,0-3.3-0.7-4.4-2c-1.1-1.3-1.6-3.1-1.6-5.4
		c0-2.4,0.6-4.4,1.8-5.9c1.2-1.5,2.8-2.2,4.8-2.2c2,0,3.4,0.8,4.3,2.4h0.1v-9.1h3.4V122.1z M270.3,115.4v-1.9c0-1.1-0.3-1.9-1-2.7
		c-0.7-0.7-1.6-1.1-2.6-1.1c-1.3,0-2.2,0.5-3,1.4c-0.7,0.9-1.1,2.2-1.1,3.9c0,1.5,0.3,2.7,1,3.6c0.7,0.9,1.6,1.3,2.8,1.3
		c1.1,0,2.1-0.4,2.8-1.3C269.9,117.7,270.3,116.7,270.3,115.4"/>
	<path class="st1" d="M283.8,122.5c-2.3,0-4.1-0.7-5.5-2.1c-1.4-1.4-2-3.2-2-5.5c0-2.5,0.7-4.4,2.1-5.8c1.4-1.4,3.3-2.1,5.7-2.1
		c2.3,0,4.1,0.7,5.4,2c1.3,1.4,1.9,3.2,1.9,5.6c0,2.3-0.7,4.2-2.1,5.7C288,121.8,286.1,122.5,283.8,122.5 M283.9,109.7
		c-1.3,0-2.3,0.5-3.1,1.4c-0.8,0.9-1.1,2.2-1.1,3.8c0,1.5,0.4,2.8,1.2,3.7c0.8,0.9,1.8,1.3,3.1,1.3c1.3,0,2.3-0.4,3-1.3
		c0.7-0.9,1.1-2.1,1.1-3.7c0-1.6-0.4-2.9-1.1-3.8C286.2,110.1,285.2,109.7,283.9,109.7"/>
	<path class="st1" d="M314.9,122.1h-3.3v-2.5h-0.1c-1.1,1.9-2.7,2.9-5,2.9c-1.8,0-3.3-0.7-4.4-2c-1.1-1.3-1.6-3.1-1.6-5.4
		c0-2.4,0.6-4.4,1.8-5.9c1.2-1.5,2.8-2.2,4.8-2.2c2,0,3.4,0.8,4.3,2.4h0.1v-9.1h3.3V122.1z M311.6,115.4v-1.9c0-1.1-0.3-1.9-1-2.7
		c-0.7-0.7-1.5-1.1-2.6-1.1c-1.2,0-2.2,0.5-2.9,1.4c-0.7,0.9-1.1,2.2-1.1,3.9c0,1.5,0.3,2.7,1,3.6c0.7,0.9,1.6,1.3,2.8,1.3
		c1.1,0,2.1-0.4,2.8-1.3C311.3,117.7,311.6,116.7,311.6,115.4"/>
	<path class="st1" d="M331.1,115.7H321c0,1.4,0.5,2.4,1.3,3.2c0.8,0.7,1.9,1.1,3.3,1.1c1.6,0,3-0.5,4.3-1.4v2.7
		c-1.3,0.8-3.1,1.3-5.3,1.3c-2.2,0-3.9-0.7-5.1-2c-1.2-1.3-1.9-3.2-1.9-5.7c0-2.3,0.7-4.2,2-5.6c1.4-1.4,3.1-2.2,5.1-2.2
		c2,0,3.6,0.6,4.7,1.9c1.1,1.3,1.7,3.1,1.7,5.4V115.7z M327.9,113.3c0-1.2-0.3-2.1-0.9-2.8c-0.6-0.7-1.3-1-2.3-1c-1,0-1.8,0.3-2.4,1
		c-0.7,0.7-1.1,1.6-1.2,2.8H327.9z"/>
	<rect x="340.9" y="100.3" class="st1" width="3.4" height="21.9"/>
	<path class="st1" d="M359.3,122.1H356v-2.3h-0.1c-1,1.8-2.5,2.7-4.5,2.7c-1.5,0-2.6-0.4-3.4-1.2c-0.8-0.8-1.2-1.8-1.2-3.1
		c0-2.8,1.6-4.4,4.8-4.9l4.4-0.6c0-2.1-1-3.2-3-3.2c-1.8,0-3.3,0.6-4.8,1.8v-2.9c1.6-0.9,3.4-1.4,5.4-1.4c3.7,0,5.6,1.8,5.6,5.5
		V122.1z M356,114.9l-3.1,0.4c-1,0.1-1.7,0.4-2.2,0.7c-0.5,0.3-0.7,0.9-0.7,1.8c0,0.6,0.2,1.1,0.7,1.5c0.4,0.4,1,0.6,1.8,0.6
		c1,0,1.9-0.4,2.5-1.1c0.7-0.7,1-1.6,1-2.7V114.9z"/>
	<path class="st1" d="M373.4,120L373.4,120l0,9H370v-21.6h3.4v2.6h0c1.2-2,2.8-2.9,5-2.9c1.9,0,3.3,0.7,4.4,2
		c1.1,1.3,1.6,3.1,1.6,5.3c0,2.5-0.6,4.4-1.8,5.9c-1.2,1.5-2.8,2.2-4.9,2.2C375.9,122.4,374.4,121.6,373.4,120 M373.3,114.1v1.8
		c0,1.1,0.3,2,1,2.7c0.7,0.8,1.6,1.1,2.6,1.1c1.2,0,2.2-0.5,2.9-1.4c0.7-1,1.1-2.3,1.1-4c0-1.5-0.3-2.6-1-3.4
		c-0.7-0.8-1.5-1.2-2.7-1.2c-1.2,0-2.2,0.4-2.9,1.3C373.7,111.8,373.3,112.9,373.3,114.1"/>
	<path class="st1" d="M388.7,104.3c-0.6,0-1-0.2-1.4-0.5c-0.4-0.4-0.6-0.8-0.6-1.4c0-0.5,0.2-1,0.6-1.4c0.4-0.4,0.9-0.5,1.4-0.5
		c0.6,0,1.1,0.2,1.4,0.5c0.4,0.4,0.6,0.8,0.6,1.4c0,0.5-0.2,1-0.6,1.3C389.8,104.1,389.3,104.3,388.7,104.3 M390.4,122.1h-3.4v-14.8
		h3.4V122.1z"/>
	<path class="st1" d="M406.5,115.7h-10.1c0,1.4,0.5,2.4,1.3,3.2c0.8,0.7,1.9,1.1,3.3,1.1c1.6,0,3-0.5,4.3-1.4v2.7
		c-1.4,0.8-3.1,1.3-5.3,1.3c-2.2,0-3.9-0.7-5.1-2c-1.2-1.3-1.9-3.2-1.9-5.7c0-2.3,0.7-4.2,2-5.6c1.4-1.4,3.1-2.2,5.1-2.2
		c2,0,3.6,0.6,4.7,1.9c1.1,1.3,1.7,3.1,1.7,5.4V115.7z M403.3,113.3c0-1.2-0.3-2.1-0.9-2.8c-0.6-0.7-1.3-1-2.3-1c-1,0-1.8,0.3-2.4,1
		c-0.7,0.7-1.1,1.6-1.2,2.8H403.3z"/>
	<rect x="409" y="100.3" class="st1" width="3.4" height="21.9"/>
	<path class="st1" d="M320.3,89.9v-9.8h0v-23h15.8v32.7h17.4V38.4c0-9.8-2.3-17.6-6.9-23.4c-4.6-5.8-10.7-8.7-18.4-8.7
		c-7.6,0-13.8,2.9-18.4,8.7c-4.6,5.8-6.9,13.6-6.9,23.4v51.5H320.3z M320.4,32.4c0-3.3,0.7-5.9,2.1-7.8c1.4-1.9,3.4-2.9,5.8-2.9
		c2.4,0,4.3,1,5.7,2.9c1.4,1.9,2.2,4.6,2.2,7.8v12h-15.8V32.4z"/>
	<path class="st1" d="M143.5,89.9v-9.8h0v-23h15.8v32.7h17.4V38.4c0-9.8-2.3-17.6-6.9-23.4c-4.6-5.8-10.7-8.7-18.4-8.7
		c-7.7,0-13.8,2.9-18.4,8.7c-4.6,5.8-6.9,13.6-6.9,23.4v51.5H143.5z M143.5,32.4c0-3.3,0.7-5.9,2.2-7.8c1.4-1.9,3.4-2.9,5.8-2.9
		c2.4,0,4.3,1,5.7,2.9c1.5,1.9,2.2,4.6,2.2,7.8v12h-15.8V32.4z"/>
	<path class="st1" d="M261.3,24.4c-7.2,21.3,15.1,54.5-28.5,53.9v11.2c4,0.6,29.8,3.8,38.2-16.2c9.1-21.7-12.7-57.4,23.8-55.4V5.6
		C294.9,5.6,268.5,3,261.3,24.4"/>
	<path class="st1" d="M212.6,24.4c-7.1,21.3,15.1,54.5-28.4,53.9v11.2c4,0.6,29.8,3.8,38.2-16.2c9.1-21.7-12.7-57.4,23.8-55.4V5.6
		C246.2,5.6,219.8,3,212.6,24.4"/>
	<path class="st1" d="M117.1,50.7c0,0-3.9-11-17.1-15.4c0,0,8.1-11.9-2.5-22.9c0,0-3.9-7-21.3-7.2L55.5,5.5v61.3
		c0,0,0.5,5.8,2.7,12.3c1.7,4.2,10.3,16,42.2,9.2C106.7,87.1,125.5,78,117.1,50.7 M93.2,75.8c-18.7,4.3-22.5-5.4-23-9
		c-0.1-4.1,0-48.1,0-48.1h11.5c8.2-0.2,10,5.1,10,5.1c3.7,15.4-6.6,16.9-6.6,16.9C106.5,41.8,110.9,71.5,93.2,75.8"/>
	<path class="st1" d="M365.5,0c-5.2,0-9.4,3.8-9.4,8.5c0,4.7,4.2,8.5,9.4,8.5c5.2,0,9.4-3.8,9.4-8.5C374.9,3.8,370.8,0,365.5,0
		 M365.5,15.6c-4.4,0-7.9-3.2-7.9-7.1c0-3.9,3.5-7.1,7.9-7.1c4.4,0,7.9,3.2,7.9,7.1C373.5,12.4,369.9,15.6,365.5,15.6"/>
	<path class="st1" d="M361.8,13V3.9h3.8c1,0,1.7,0.1,2.1,0.3c0.4,0.2,0.8,0.5,1,0.9c0.3,0.4,0.4,0.9,0.4,1.4c0,0.7-0.2,1.3-0.6,1.7
		c-0.4,0.4-1,0.7-1.8,0.8c0.4,0.2,0.7,0.5,1,0.7c0.2,0.3,0.6,0.8,1,1.5l1.1,1.8h-2.1l-1.3-2c-0.5-0.7-0.8-1.2-0.9-1.3
		c-0.2-0.2-0.3-0.3-0.5-0.4c-0.2-0.1-0.5-0.1-0.9-0.1h-0.4V13H361.8z M363.6,7.8h1.3c0.9,0,1.4,0,1.6-0.1c0.2-0.1,0.4-0.2,0.5-0.4
		c0.1-0.2,0.2-0.4,0.2-0.7c0-0.3-0.1-0.6-0.2-0.7c-0.2-0.2-0.4-0.3-0.7-0.4c-0.2,0-0.6,0-1.3,0h-1.4V7.8z"/>
	<path class="st1" d="M361.8,13V3.9h3.8c1,0,1.7,0.1,2.1,0.3c0.4,0.2,0.8,0.5,1,0.9c0.3,0.4,0.4,0.9,0.4,1.4c0,0.7-0.2,1.3-0.6,1.7
		c-0.4,0.4-1,0.7-1.8,0.8c0.4,0.2,0.7,0.5,1,0.7c0.2,0.3,0.6,0.8,1,1.5l1.1,1.8h-2.1l-1.3-2c-0.5-0.7-0.8-1.2-0.9-1.3
		c-0.2-0.2-0.3-0.3-0.5-0.4c-0.2-0.1-0.5-0.1-0.9-0.1h-0.4V13H361.8z M363.6,7.8h1.3c0.9,0,1.4,0,1.6-0.1c0.2-0.1,0.4-0.2,0.5-0.4
		c0.1-0.2,0.2-0.4,0.2-0.7c0-0.3-0.1-0.6-0.2-0.7c-0.2-0.2-0.4-0.3-0.7-0.4c-0.2,0-0.6,0-1.3,0h-1.4V7.8z"/>
	<rect y="60.1" class="st1" width="44.9" height="7.1"/>
	<rect x="373.5" y="60.1" class="st1" width="45" height="7.1"/>
</g>
</svg>
